/* XPM */
static char *coin_mario[] = {
/* columns rows colors chars-per-pixel */
"64 64 245 2 ",
"   c #371B03",
".  c #2D1303",
"X  c #3C2204",
"o  c #3E2406",
"O  c #481D02",
"+  c #432604",
"@  c #4C2401",
"#  c #432B04",
"$  c #4B2C04",
"%  c #41250A",
"&  c #562D05",
"*  c #4D3207",
"=  c #553304",
"-  c #5B3905",
";  c #533409",
":  c #5B3B0B",
">  c #583608",
",  c #593B13",
"<  c #633D0A",
"1  c #643C02",
"2  c #5D420D",
"3  c #6C4304",
"4  c #65430D",
"5  c #6B440C",
"6  c #6E4A0D",
"7  c #664206",
"8  c #724602",
"9  c #764903",
"0  c #7B4C03",
"q  c #754D0E",
"w  c #7D540D",
"e  c #7B5108",
"r  c #6A4612",
"t  c #744C13",
"y  c #7B5513",
"u  c #7A5515",
"i  c #765B39",
"p  c #814F04",
"a  c #855302",
"s  c #895505",
"d  c #8D5E0B",
"f  c #865807",
"g  c #915C09",
"h  c #845B14",
"j  c #9A660C",
"k  c #9C690C",
"l  c #95640A",
"z  c #8A6114",
"x  c #8B631A",
"c  c #876011",
"v  c #956B1A",
"b  c #996E1B",
"n  c #946616",
"m  c #9C711A",
"M  c #8F610B",
"N  c #A36E0C",
"B  c #A46808",
"V  c #A5710A",
"C  c #AB730B",
"Z  c #AE7608",
"A  c #B47C0C",
"S  c #B67B0B",
"D  c #A26E10",
"F  c #A4751C",
"G  c #AA7715",
"H  c #B47D12",
"J  c #B37D1A",
"K  c #957635",
"L  c #A47A24",
"P  c #B37D20",
"I  c #907B4B",
"U  c #B7800E",
"Y  c #BC830C",
"T  c #B78210",
"R  c #BD8513",
"E  c #BC8815",
"W  c #B68726",
"Q  c #BD9629",
"!  c #BD9535",
"~  c #AA8430",
"^  c #C1860E",
"/  c #C58C0E",
"(  c #CA8E0E",
")  c #C68A06",
"_  c #CD920E",
"`  c #CB9107",
"'  c #D2960E",
"]  c #D6990E",
"[  c #DA9C0E",
"{  c #C58C12",
"}  c #C98E13",
"|  c #C48A17",
" . c #CC9213",
".. c #CD941C",
"X. c #CB9515",
"o. c #D29512",
"O. c #D59912",
"+. c #DA9C13",
"@. c #D29619",
"#. c #D49B1C",
"$. c #D99B1C",
"%. c #DEA012",
"&. c #DCA31B",
"*. c #DBA51B",
"=. c #DFA10F",
"-. c #E4A50D",
";. c #E3A514",
":. c #E2A51C",
">. c #E4A81C",
",. c #E9AB1D",
"<. c #E8A914",
"1. c #F0AE19",
"2. c #EDB118",
"3. c #F0B015",
"4. c #F1B31C",
"5. c #F5B81E",
"6. c #CA9927",
"7. c #D29C22",
"8. c #DA9E22",
"9. c #D59C2A",
"0. c #C89632",
"q. c #DCA324",
"w. c #DCAB25",
"e. c #D7A12C",
"r. c #DBA62B",
"t. c #DBAB2C",
"y. c #D4A323",
"u. c #DEB32B",
"i. c #CCA63C",
"p. c #DCAC33",
"a. c #DEAF39",
"s. c #D6A836",
"d. c #DEB035",
"f. c #DEB03A",
"g. c #DCB939",
"h. c #E2A423",
"j. c #E4AA24",
"k. c #E9AB22",
"l. c #E3AC2B",
"z. c #E4A527",
"x. c #EDB322",
"c. c #E3B12B",
"v. c #EEBA2D",
"b. c #E6B827",
"n. c #F2B423",
"m. c #F1BB28",
"M. c #E1AE34",
"N. c #E1AF3A",
"B. c #E3B235",
"V. c #EAB432",
"C. c #E5B43B",
"Z. c #E8B63B",
"A. c #E5BB3B",
"S. c #EBBA3B",
"D. c #EABA33",
"F. c #F0BB32",
"G. c #EDC627",
"H. c #EFD127",
"J. c #EBC53B",
"K. c #F2CC35",
"L. c #F4D335",
"P. c #F0CD28",
"I. c #F8E83B",
"U. c #9F895F",
"Y. c #B39750",
"T. c #998563",
"R. c #9D8C71",
"E. c #B19D66",
"W. c #AB9774",
"Q. c #BBAA75",
"!. c #C19B46",
"~. c #D4A941",
"^. c #DFB644",
"/. c #D5B14F",
"(. c #CCAC52",
"). c #E1AD40",
"_. c #E2B643",
"`. c #E3B944",
"'. c #E4BB4A",
"]. c #ECBD44",
"[. c #E7BB51",
"{. c #D2B76C",
"}. c #E4BD69",
"|. c #DDC652",
" X c #EBC24E",
".X c #E6C847",
"XX c #EDD54A",
"oX c #F5DA47",
"OX c #EBC455",
"+X c #F3C753",
"@X c #EBD958",
"#X c #F6DB57",
"$X c #F4C74A",
"%X c #F9E949",
"&X c #FBE653",
"*X c #FDF857",
"=X c #F9EF51",
"-X c #E6C765",
";X c #EBD376",
":X c #FAE968",
">X c #FCFA65",
",X c #F9EB76",
"<X c #FDFD7C",
"1X c #FEFC75",
"2X c #EBE077",
"3X c #DEC979",
"4X c #B7A995",
"5X c #A69983",
"6X c #C1B28F",
"7X c #CDBF98",
"8X c #C2BBB2",
"9X c #D4C390",
"0X c #E7C885",
"qX c #E7D297",
"wX c #E8D08D",
"eX c #FDFB88",
"rX c #FCFA97",
"tX c #F3E79C",
"yX c #D6C9A8",
"uX c #DED5BD",
"iX c #E9D7AA",
"pX c #F3EBAA",
"aX c #FDFDA7",
"sX c #F2E4B6",
"dX c #FDFCB5",
"fX c #FDFCBB",
"gX c #F9F7B5",
"hX c #EDE3BC",
"jX c #E3DCC6",
"kX c #E3DFD8",
"lX c #EEE5CB",
"zX c #F4E9C5",
"xX c #FDFDC4",
"cX c #FDFCCB",
"vX c #F8F1C5",
"bX c #EBE8DB",
"nX c #FEFDD5",
"mX c #FAF6DB",
"MX c #F3EAD5",
"NX c #F1EFE5",
"BX c #F7F5E8",
"VX c #FFFFFF",
"CX c #FAF9F4",
"ZX c #EFECE9",
"AX c #D7D3CD",
/* pixels */
"VXVXVXVXVXVXVXVXVXVXVXVXVXVXVXVXVXVXVXVXVXVXVXVXVXVXVXVXVXVXVXVXVXVXVXVXVXVXVXVXVXVXVXVXVXVXVXVXVXVXVXVXVXVXVXVXVXVXVXVXVXVXVXVX",
"VXVXVXVXVXVXVXVXVXVXVXVXVXVXVXVXVXVXVXVXVXVXVXVXVXCXCXVXVXVXVXVXVXVXVXVXVXVXVXVXVXVXVXVXVXVXVXVXVXVXVXVXVXVXVXVXVXVXVXVXVXVXVXVX",
"VXVXVXVXVXVXVXVXVXVXVXVXVXVXVXVXVXVXVXVXVXVXCXVXVXVXVXVXVXVXVXVXVXVXVXVXVXVXVXVXVXVXVXVXVXVXVXVXVXVXVXVXVXVXVXVXVXVXVXVXVXVXVXVX",
"VXVXVXVXVXVXVXVXVXVXVXVXVXVXVXVXVXVXVXVXVXVXVXVXmXzXsXsXhXzXvXmXmXmXBXVXVXVXVXVXVXVXVXVXVXVXVXVXVXVXVXVXVXVXVXVXVXVXVXVXVXVXVXVX",
"VXVXVXVXVXVXVXVXVXVXVXVXVXVXVXVXVXVXVXVXVXBXqX^.r.&.*.*.w.u.u.G.P.P.K.$X2XpXBXVXVXVXVXVXVXVXVXVXVXVXVXVXVXVXVXVXVXVXVXVXVXVXVXVX",
"VXVXVXVXVXVXVXVXVXVXVXVXVXVXVXVXVXCXVXCX0Xe.o.#.#...#.O.O.#.t.J.J.L.L.L.P.L.#XtXCXVXVXVXVXVXVXVXVXVXVXVXVXVXVXVXVXVXVXVXVXVXVXVX",
"VXVXVXVXVXVXVXVXVXVXVXVXVXVXVXVXVXVXjX~.o.$.y.#.#.#.O.o.O.o._ X.c..XXX&X#X&XoXoX#XvXVXVXVXVXVXVXVXVXVXVXVXVXVXVXVXVXVXVXVXVXVXVX",
"VXVXVXVXVXVXVXVXVXVXVXVXVXVXVXVXVXiX6.$.8.$.#.#.#.X.#.o.O.X.O.' _ y..XXX&X&X=X&X%XI.tXVXVXVXVXVXVXVXVXVXVXVXVXVXVXVXVXVXVXVXVXVX",
"VXVXVXVXVXVXVXVXVXVXVXVXVXVXVXVXqX..8.9.8.$.#.#.*.#.X.X.O.' X.o.X.` #..X@X=X*X*X*X*XI.eXVXVXVXVXVXVXVXVXVXVXVXVXVXVXVXVXVXVXVXVX",
"VXVXVXVXVXVXVXVXVXVXVXVXVXVXVXiX$.z.z.8.8.@.#._ ` ` ` / _ X. . .X.X._ X..X@X*X>X*X>X*X=XrXVXVXVXVXVXVXVXVXVXVXVXVXVXVXVXVXVXVXVX",
"VXVXVXVXVXVXVXVXVXVXVXVXVXVXlX8.h.h.8.8.$.o.#.f.-X;X@X'.7.X. . . .} o.} y.@X:XeX<X<X1X1X*XgXVXVXVXVXVXVXVXVXVXVXVXVXVXVXVXVXVXVX",
"VXVXVXVXVXVXVXVXVXVXVXVXVXCXa.>.h.h.q.$.$.-XpXtX3X(.(.{.~ B { o. . . .X./ t.@X,XrXrXeXeXeX1XmXVXVXVXVXVXVXVXVXVXVXVXVXVXVXVXVXVX",
"VXVXVXVXVXVXVXVXVXVXVXVXVX0X=.k.h.:.&.r.#XwX!.J T J C N D g g H X. . .} ..( g.@XaXdXaXaXaXrXrXCXVXVXVXVXVXVXVXVXVXVXVXVXVXVXVXVX",
"VXVXVXVXVXVXVXVXVXVXVXVXMXh.k.h.:.,.| | s.J | 9.9.6.6.@.| R D s N X. .} o.}  ..X2XxXxXxXfXdXaXxXVXVXVXVXVXVXVXVXVXVXVXVXVXVXVXVX",
"VXVXVXVXVXVXVXVXVXVXVXVX}.<.k.,.k...0 M T 6.e.9.8.8.@.@... .{ H s B o. .} o.} 9..XpXmXnXnXxXxXdXBXVXVXVXVXVXVXVXVXVXVXVXVXVXVXVX",
"VXVXVXVXVXVXVXVXVXVXVXMXk.x.,.,.:.e p J 9.z.z.8.$.o.o.o.o.o. . .H s D o.} } } } s.-XmXnXnXnXcXxXcXVXVXVXVXVXVXVXVXVXVXVXVXVXVXVX",
"VXVXVXVXVXVXVXVXVXVXVX0X<.k.>.4.k 5 D 8.z.z.z.z.`. XOX-X-Xe.o.X.} H s H X.}  .} #.i.pXnXxXcXxXxXdXBXVXVXVXVXVXVXVXVXVXVXVXVXVXVX",
"VXVXVXVXVXVXVXVXVXVXCXC.1.n.4.#.3 d ..k.k.k.k.0.~ I I K K Q +.O.o.} C g {  .} } X.6.{.xXfXfXfXdXaXfXVXVXVXVXVXVXVXVXVXVXVXVXVXVX",
"VXVXVXVXVXVXVXVXCXVXhX,.n.,.4.j 8 A k.,.,.k.k.R 1 @ $ 0 a U =.O.O.o.{ j V X.} } / E ! tXaXaXaXrXrXeXBXVXVXVXVXVXVXVXVXVXVXVXVXVX",
"VXVXVXVXVXVXVXVXVXVX0X3.n.4.&.9 f @.,.>.>.>.h.| 3 1 - c l R [ +.O.o.o.R g {  .} X.X.E -XeXeXeXeX<X1XgXVXVXVXVXVXVXVXVXVXVXVXVXVX",
"VXVXVXVXVXVXVXVXVXVX[.4.x.5.H 8 C <.;.-.;.:.:.^ 8 1 1 d k ^ [ [ +.o.o.} N C o.} { X.G Q ,X:X:X:X:X&X,XVXVXVXVXVXVXVXVXVXVXVXVXVX",
"VXVXVXVXVXVXVXVXVXBXV.4.4.4.M e _ <.-.-.;.;.:.^ 9 1 1 M k ) [ ] ] o.o.o.R B | } { X.H n [.+X+X[.$X$X$XmXVXVXVXVXVXVXVXVXVXVXVXVX",
"VXVXVXVXVXVXVXVXVXzX1.n.5.&.a d %.;.-.-.;.=.;.^ 9 3 7 l V / [ ] +.+.o.o.} D A X.{ ( E f 0.).).)._.C.z.iXVXCXVXVXVXVXVXVXVXVXVXVX",
"VXVXVXVXVXVXVXVXVXiX3.n.n.{ 0 V -.-.-.-.-.%.%.^ 9 3 7 l V ` [ ] O.o.o.o. .A V { ( } } e v i.0.0.0.0.6.{.VXVXVXVXVXVXVXVXVXVXVXVX",
"VXVXVXVXVXVXVXVXVXwX3.4.5.T 0 Y <.-.-.-.-.[ =.Y 0 3 3 k C ( [ ] ] ] O.o. .^ B { / / X.f 6 W W W P W J !.VXVXVXVXVXVXVXVXVXVXVXVX",
"VXVXVXVXVXVXVXVXVX-X3.4.x.C f o.<.-.-.-.%.=.[ Y 9 8 3 k A _ ] ] ] ] ] o.' } C U _ / _ k > L F F F L D L NXVXVXVXVXVXVXVXVXVXVXVX",
"VXVXVXVXVXVXVXVXVXOX3.4.,.N d +.<.<.<.-.%.[ [ Y 0 3 8 D Z ( ] ] ] ] +.O.o.} A Z X./ ` G # h b v n n n l jXVXCXVXVXVXVXVXVXVXVXVX",
"VXVXVXVXVXVXVXVXVX$X3.n.>.k l %.:.:.:.;.;.;.+.U 9 8 8 V S ' ] ] ] ] ] o.o.o.Y C / / ( U + t n d z z c 0 yXVXVXVXVXVXVXVXVXVXVXVX",
"VXVXVXVXVXVXVXVXCX].4.5.:.j B ;.k.k.>.h.:.%.+.Y 0 9 9 N A ' ] ] o.] ] ] ' _ { Z / ( / { # : c y h h h 8 6XVXVXVXVXVXVXVXVXVXVXVX",
"VXVXVXVXVXVXVXVXCXS.4.n.:.g N :.c.j.l.q.:.q.%.S 9 9 9 V A  .+.o.] ] ] ' ' ' } A / ( / ( < 2 y u y y y 3 W.VXVXVXVXVXVXVXVXVXVXVX",
"VXVXVXVXVXVXVXVXCXS.4.n.:.j C :.l.M.u.c.t.l.:.U 0 9 9 N A ' +.+.] ] ] ' o._ ( S ^ ( / _ y , q 6 6 6 t 7 R.VXVXVXVXVXVXVXVXVXVXVX",
"VXVXVXVXVXVXVXVXCXS.4.n.:.j C :.c.B.M.p.t.t.t.U 0 9 0 N A o.+.O.O.] ] ' ] ' X.S Y  ./ o.7 o 6 2 2 2 4 = T.VXCXVXVXVXVXVXVXVXVXVX",
"VXVXVXVXVXVXVXVXCXZ.4.n.*.V V >.M.d.f.p.p.M.t.T 0 9 0 N A o.$.$.$.O.O.o.o.o._ S ^  ./ o.4 . r r r r r - I VXVXVXVXVXVXVXVXVXVXVX",
"VXVXVXVXVXVXVXVXVX].1.n.>.C V %.l.d.d.f.a.a.a.T 0 9 0 N A @.8.$.$.$.O.] ] o.' ^ ^  .} O.4 X x u u u u 7 T.VXVXVXVXVXVXVXVXVXVXVX",
"VXVXVXVXVXVXVXVXVX[.3.n.k.R V &.B.B.p.f.a.a.a.U 0 0 0 N A #.8.8.8.$.$.@.o.o.o.^ |  . .O.6   x u u u u 2 T.VXVXVXVXVXVXVXVXVXVXVX",
"VXVXVXVXVXVXVXVXVX-X4.n.x. .N &.B.B.f.a.a.a.a.T 0 0 0 N S #.w.q.8.$.$.$.@.$.o.^ } o. .$.6 o u t 6 6 r - T.VXCXVXVXVXVXVXVXVXVXVX",
"VXVXVXVXVXVXVXVXVX;X<.n.n.+.C O.B.B.f.f.a.a.a.T a 0 0 V A #.t.y.q.8.8.$.$.$.@.{ } @.@.$.r o 4 2 2 2 2 # R.VXCXVXVXVXVXVXVXVXVXVX",
"VXVXVXVXVXVXVXVXVXqX3.m.m.*.A { c.B.p.f.d.f.f.T 0 0 0 V A #.t.t.r.q.8.8.8.$.@.| @.@.@.@.< X , ; ; * 2 # W.VXVXVXVXVXVXVXVXVXVXVX",
"VXVXVXVXVXVXVXVXVXhX,.m.m.2.{ Y c.B.f.a.f.f.d.T a 0 0 V U #.p.t.r.t.r.q.8.8.$.} @.8.$.7.: o * * * * 2 o 4XVXVXVXVXVXVXVXVXVXVXVX",
"VXVXVXVXVXVXVXVXVXNXx.m.v.x.&.A w.B.a.f.f.d.f.R 0 0 0 V U 6.p.r.t.t.r.q.z.9.8.} $.$.$...; o # # o # o X 8XVXCXVXVXVXVXVXVXVXVXVX",
"VXVXVXVXVXVXVXVXVXCX^.m.v.m.m.Y o.C.M.a.a.p.f.E a p p V S 7.d.t.t.t.t.t.r.r.7...8.$.8.| $ % + + o o o X AXVXVXVXVXVXVXVXVXVXVXVX",
"VXVXVXVXVXVXVXVXVXVX3X5.v.v.v.&./ B.C.M.N.f.f.{ a p p V U 7.d.t.s.t.t.t.t.t.7.$.8.8.z.P   * * $ * $ $ ; ZXVXVXVXVXVXVXVXVXVXVXVX",
"VXVXVXVXVXVXVXVXVXVXiX2.v.v.v.G./ q.Z.B.N.a.C.| s s a N Y 7.s.s.s.t.s.t.t.t.7.q.q.8.z.n   < = ; = = $ i VXVXVXVXVXVXVXVXVXVXVXVX",
"VXVXVXVXVXVXVXVXVXVXNXg.m.v.D.L.w. .B.B.B.a.C.{ s s s C Y #.d.s.d.p.s.t.t.t.y.q.q.q.z.r   7 : < - 2 & T.VXCXVXVXVXVXVXVXVXVXVXVX",
"VXVXVXVXVXVXVXVXVXVXVX}.4.F.V.K.L. .w.C.B.N.B...g a s C Y 7.a.p.s.p.p.s.t.t.w.t.e.q.9.% + < < < 4 4 - 6XVXCXVXVXVXVXVXVXVXVXVXVX",
"VXVXVXVXVXVXVXVXVXVXVXiXx.F.V.D.%Xu.o.B.N.N.a.7.l a s Z Y 7.f.p.p.p.p.t.t.w.t.t.t.l.W . > - > > > > , kXVXVXVXVXVXVXVXVXVXVXVXVX",
"VXVXVXVXVXVXVXVXVXVXVXCX^.v.S.B.K.%X+.r.C.M.f.y.Z j Z ^ ) #.f.p.u.d.t.t.t.u.t.t.t.V.h   < - - < - & i VXVXVXVXVXVXVXVXVXVXVXVXVX",
"VXVXVXVXVXVXVXVXVXVXVXVXqXj.S.B.d.%XoX+.M.C.M.M.L.P.G.G.<.*.B.M.d.u.p.r.b.u.t.d.M.p.> & 7 < < < 5 & 4XVXVXVXVXVXVXVXVXVXVXVXVXVX",
"VXVXVXVXVXVXVXVXVXVXVXVXBXa.B.B.V.Z.*XL.&.B.B.p.A.A.J.J.J.V.M.M.p.d.r.u.b.p.p.p.C.W $ 6 6 6 6 6 5 6 bXVXVXVXVXVXVXVXVXVXVXVXVXVX",
"VXVXVXVXVXVXVXVXVXVXVXVXVXqXw.C.C.M..X*XL.&.M.M.p.p.p.M.p.p.p.p.d.r.w.G.p.a.a.a.C.t = y q q q u 3 U.VXCXVXVXVXVXVXVXVXVXVXVXVXVX",
"VXVXVXVXVXVXVXVXVXVXVXVXVXCX/.B.C.C.M.XX*XL.:.t.N.N.M.M.p.M.u.s.e.w.H.p.a.a.a.Z.! @ q w w w y w q jXVXVXVXVXVXVXVXVXVXVXVXVXVXVX",
"VXVXVXVXVXVXVXVXVXVXVXVXVXVXhXt.V.C.V.M.XX>X&Xj.q.r.r.r.t.s.r.e.b.H.B.a.f._.N._.t & v c c c z e E.VXVXVXVXVXVXVXVXVXVXVXVXVXVXVX",
"VXVXVXVXVXVXVXVXVXVXVXVXVXVXVX9Xl._.C.Z.M..X:X1XoXb.h.q.q.u.J.H.H.d.f.g._.^.].L O x b n v v z b ZXVXVXVXVXVXVXVXVXVXVXVXVXVXVXVX",
"VXVXVXVXVXVXVXVXVXVXVXVXVXVXVXCX/.c.Z.B.Z.B.C.XX:X>X&X%XI.I.L.A.d.f._.^.^.].i.& t L m m m b n uXVXVXVXVXVXVXVXVXVXVXVXVXVXVXVXVX",
"VXVXVXVXVXVXVXVXVXVXVXVXVXVXCXVXNX~.V.C.C.Z.C.M.M.Z..X].A.B.M.C.B._.^.^.'.`.5 < L m b v v d 7XVXCXVXVXVXVXVXVXVXVXVXVXVXVXVXVXVX",
"VXVXVXVXVXVXVXVXVXVXVXVXVXVXVXVXVXbXi.V.S.C.C.C.C.N.V.N.C.C.C.C._.'.`.'.[.t @ x x z x x e 6XVXVXVXVXVXVXVXVXVXVXVXVXVXVXVXVXVXVX",
"VXVXVXVXVXVXVXVXVXVXVXVXVXVXVXVXVXVXbX~.t.A.A.C.Z.Z.C.C.A.A.`.'.^.'.OX^.t O x b v v M b yXVXCXVXVXVXVXVXVXVXVXVXVXVXVXVXVXVXVXVX",
"VXVXVXVXVXVXVXVXVXVXVXVXVXVXVXVXVXVXVXNX{.y.D.`.`.A.`.A.`.`.^.^. XOX0.< ; L ~ L F V Y.bXVXVXVXVXVXVXVXVXVXVXVXVXVXVXVXVXVXVXVXVX",
"VXVXVXVXVXVXVXVXVXVXVXVXVXVXVXVXVXVXVXVXVXyX! 6.B.]. X X[. X.XOX~.v & t W W G F Y.yXVXVXVXVXVXVXVXVXVXVXVXVXVXVXVXVXVXVXVXVXVXVX",
"VXVXVXVXVXVXVXVXVXVXVXVXVXVXVXVXVXVXVXVXCXVXCX9XY.W Q 6.Q Q W l 8 0 P 0.! !.{.jXCXVXVXVXVXVXVXVXVXVXVXVXVXVXVXVXVXVXVXVXVXVXVXVX",
"VXVXVXVXVXVXVXVXVXVXVXVXVXVXVXVXVXVXVXVXVXVXVXVXCXlX6XQ.E.Y.E.Q.9XsXsXlXBXVXVXVXVXVXVXVXVXVXVXVXVXVXVXVXVXVXVXVXVXVXVXVXVXVXVXVX",
"VXVXVXVXVXVXVXVXVXVXVXVXVXVXVXVXVXVXVXVXVXVXVXCXVXVXVXVXVXVXVXVXVXVXVXVXVXVXVXVXVXVXVXVXVXVXVXVXVXVXVXVXVXVXVXVXVXVXVXVXVXVXVXVX",
"VXVXVXVXVXVXVXVXVXVXVXVXVXVXVXVXVXVXVXVXVXVXVXVXVXVXVXVXVXVXVXCXVXVXVXCXVXVXVXVXVXVXVXVXVXVXVXVXVXVXVXVXVXVXVXVXVXVXVXVXVXVXVXVX",
"VXVXVXVXVXVXVXVXVXVXVXVXVXVXVXVXVXVXVXVXVXVXVXVXVXVXVXVXVXVXVXVXVXVXVXVXVXVXVXVXVXVXVXVXVXVXVXVXVXVXVXVXVXVXVXVXVXVXVXVXVXVXVXVX"
};
